# xmcd
#
# Track frame offsets: 
#        150
#        16368
#        40551
#        53614
#        69314
#        85961
#        100361
#        127379
#        144507
#        169597
#        188549
#        210063
#
# Disc length: 2989 seconds
#
# Revision: 0
# Processed by: cddbd v1.5.1PL0 Copyright (c) Steve Scherf et al.
# Submitted via: ExactAudioCopy v0.95a4
#
DISCID=960bab0c
DTITLE=detroit junior - TAKE OUT THE TIME
DYEAR=1997
DGENRE=R&B
TTITLE0=Take Out The Time
TTITLE1=I Got High Last Night
TTITLE2=Chicken Shack Boogie
TTITLE3=We're Through
TTITLE4=Baby Workout
TTITLE5=Trouble In Mind
TTITLE6=What I Say
TTITLE7=I Don't Know
TTITLE8=Slow Dancing
TTITLE9=Bring It On Home
TTITLE10=Please Don't Leave 
TTITLE11=Blueberry Hill
EXTD=
EXTT0=
EXTT1=
EXTT2=
EXTT3=
EXTT4=
EXTT5=
EXTT6=
EXTT7=
EXTT8=
EXTT9=
EXTT10=
EXTT11=
PLAYORDER=
